# xmcd
#
# Track frame offsets: 
#        150
#        23492
#        46955
#        61581
#        96133
#        117194
#        136472
#        175537
#
# Disc length: 2553 seconds
#
# Revision: 0
# Processed by: cddbd v1.5.2PL0 Copyright (c) Steve Scherf et al.
# Submitted via: ExactAudioCopy v0.99pb4
#
DISCID=5809f708
DTITLE=Jorma Kaukonen and Friends - Merlefest 2008
DYEAR=2008
DGENRE=Bluegrass
TTITLE0=There's A Table Sitting In Heaven
TTITLE1=Living In The Moment
TTITLE2=Fur Peace Rag
TTITLE3=Death Don't Have No Mercy
TTITLE4=Will There Be Any Stars In My Crown?
TTITLE5=A Life Well Lived
TTITLE6=Come Back Baby
TTITLE7=Late Breaking News
EXTD=
EXTT0=
EXTT1=
EXTT2=
EXTT3=
EXTT4=
EXTT5=
EXTT6=
EXTT7=
PLAYORDER=
